<?xml version="1.0" encoding="utf-8"?>
<!-- Generator: Adobe Illustrator 19.1.0, SVG Export Plug-In . SVG Version: 6.00 Build 0)  -->
<svg version="1.1" id="レイヤー_1" xmlns="http://www.w3.org/2000/svg" xmlns:xlink="http://www.w3.org/1999/xlink" x="0px"
	 y="0px" viewBox="0 0 16 16" style="enable-background:new 0 0 16 16;" xml:space="preserve">
<style type="text/css">
	.st0{fill:url(#SVGID_1_);}
	.st1{fill:#FFFFFF;}
</style>
<linearGradient id="SVGID_1_" gradientUnits="userSpaceOnUse" x1="8" y1="16" x2="8" y2="-3.583409e-10">
	<stop  offset="0" style="stop-color:#8EB3B6"/>
	<stop  offset="1" style="stop-color:#F9C2B1"/>
</linearGradient>
<rect class="st0" width="16" height="16"/>
<g>
	<path class="st1" d="M6.8,8.7L2.6,5.2C2.2,6,1.9,7,1.9,8c0,3.3,2.6,5.9,5.8,6.1L6.8,8.7z"/>
	<path class="st1" d="M8,6.6l5.1-1.9C12,3,10.1,1.9,8,1.9S4,3,2.9,4.7L8,6.6z"/>
	<path class="st1" d="M9.2,8.7l-0.9,5.4c3.2-0.2,5.8-2.8,5.8-6.1c0-1-0.2-2-0.7-2.8L9.2,8.7z"/>
</g>
</svg>
