<?xml version="1.0" encoding="utf-8"?>
<!-- Generator: Adobe Illustrator 19.1.0, SVG Export Plug-In . SVG Version: 6.00 Build 0)  -->
<svg version="1.1" id="レイヤー_1" xmlns="http://www.w3.org/2000/svg" xmlns:xlink="http://www.w3.org/1999/xlink" x="0px"
	 y="0px" viewBox="0 0 432.4 32.7" style="enable-background:new 0 0 432.4 32.7;" xml:space="preserve">
<style type="text/css">
	.st0{fill:#FFFFFF;}
</style>
<g>
	<path class="st0" d="M6.6,26.1c-2.9,0-4.4-1.5-4.4-4.4v-11L5,9.4h0.1v12.3c0,1.2,0.5,1.8,1.5,1.8H10c1,0,1.5-0.6,1.5-1.8v-11
		l2.8-1.3h0.1v18.3c0,2.9-1.5,4.4-4.4,4.4H3.7v-0.1l1.2-2.5H10c1,0,1.5-0.6,1.5-1.8v-2.1c-0.4,0.3-0.9,0.4-1.5,0.4H6.6z"/>
	<path class="st0" d="M25.8,25.8c-0.3-0.4-0.5-0.8-0.5-1.3s0.2-0.9,0.5-1.3s0.8-0.5,1.2-0.5s0.9,0.2,1.2,0.5s0.5,0.8,0.5,1.3
		s-0.2,0.9-0.5,1.3s-0.8,0.5-1.2,0.5S26.2,26.2,25.8,25.8z"/>
	<path class="st0" d="M41,26.6v-14h-3.8v-0.1l1.2-2.5H41V4.7l2.8-1.3h0.1v6.6h3.8v0.1l-1.2,2.5h-2.6v12.7l-2.8,1.3H41z"/>
	<path class="st0" d="M60.7,26.1c-2.9,0-4.4-1.5-4.4-4.4v-7.3c0-2.9,1.5-4.4,4.4-4.4H64c2.9,0,4.4,1.5,4.4,4.4v7.3
		c0,2.9-1.5,4.4-4.4,4.4H60.7z M60.7,23.4H64c1,0,1.5-0.6,1.5-1.8v-7.3c0-1.2-0.5-1.8-1.5-1.8h-3.4c-1,0-1.5,0.6-1.5,1.8v7.3
		C59.2,22.8,59.7,23.4,60.7,23.4z"/>
	<path class="st0" d="M78.8,26.6V14.3c0-2.9,1.5-4.4,4.4-4.4h3.4c1.3,0,2.3,0.4,2.9,1.1c0.6-0.7,1.6-1.1,2.9-1.1h3.4
		c2.9,0,4.4,1.5,4.4,4.4v11l-2.8,1.3h-0.1V14.3c0-1.2-0.5-1.8-1.5-1.8h-3.4c-1,0-1.5,0.6-1.5,1.8v11l-2.8,1.3H88V14.3
		c0-1.2-0.5-1.8-1.5-1.8h-3.4c-1,0-1.5,0.6-1.5,1.8v11L79,26.6H78.8z"/>
	<path class="st0" d="M115,26.1c-2.9,0-4.4-1.5-4.4-4.4v-7.3c0-2.9,1.5-4.4,4.4-4.4h3.4c2.9,0,4.4,1.5,4.4,4.4v0.8l-9.2,7.1
		c0.1,0.8,0.6,1.2,1.4,1.2h3.4c1,0,1.5-0.6,1.5-1.8v-0.8l2.8-1.3h0.1v2.1c0,2.9-1.5,4.4-4.4,4.4H115z M113.5,19.2l6.3-4.9
		c-0.1-1.1-0.5-1.7-1.5-1.7H115c-1,0-1.5,0.6-1.5,1.8V19.2z"/>
	<path class="st0" d="M135.1,26.6v-14h-3.8v-0.1l1.2-2.5h2.6V4.7l2.8-1.3h0.1v6.6h3.8v0.1l-1.2,2.5H138v12.7l-2.8,1.3H135.1z"/>
	<path class="st0" d="M154,26.1c-2.9,0-4.4-1.5-4.4-4.4v-2c0-2.9,1.5-4.4,4.4-4.4h3.1c0.5,0,1,0.1,1.5,0.4v-1.4
		c0-1.2-0.5-1.8-1.5-1.8h-5.2v-0.1l1.2-2.5h4.1c2.9,0,4.4,1.5,4.4,4.4v11l-2.8,1.3h-0.1v-1c-0.4,0.3-0.9,0.4-1.5,0.4H154z M154,23.4
		h3.1c1,0,1.5-0.6,1.5-1.8v-2c0-1.2-0.5-1.8-1.5-1.8H154c-1,0-1.5,0.6-1.5,1.8v2C152.5,22.8,153,23.4,154,23.4z"/>
	<path class="st0" d="M171.9,26.6V14.3c0-2.9,1.5-4.4,4.4-4.4h3.7v0.1l-1.2,2.5h-2.5c-1,0-1.5,0.6-1.5,1.8v11l-2.8,1.3H171.9z"/>
	<path class="st0" d="M192.8,26.1c-2.9,0-4.4-1.5-4.4-4.4v-7.3c0-2.9,1.5-4.4,4.4-4.4h3.4c2.9,0,4.4,1.5,4.4,4.4v7.3
		c0,2.9-1.5,4.4-4.4,4.4H192.8z M192.8,23.4h3.4c1,0,1.5-0.6,1.5-1.8v-7.3c0-1.2-0.5-1.8-1.5-1.8h-3.4c-1,0-1.5,0.6-1.5,1.8v7.3
		C191.3,22.8,191.8,23.4,192.8,23.4z"/>
	<path class="st0" d="M220.3,26.1c-2.9,0-4.4-1.5-4.4-4.4v-1.1c0-2.9,1.5-4.4,4.4-4.4h1.5c0.5,0,1,0,1.5,0.1v-2
		c0-1.2-0.5-1.8-1.5-1.8h-5.3c-1.5,0-2.2,0.8-2.2,2.5v11.9c0,1.7,0.7,2.5,2.2,2.5h4v2.6h-4c-3.4,0-5.1-1.7-5.1-5.1V15.1
		c0-3.4,1.7-5.1,5.1-5.1h5.3c2.9,0,4.4,1.5,4.4,4.4v11l-2.8,1.3h-0.1v-0.7c-0.4,0.1-0.9,0.1-1.5,0.1H220.3z M220.3,23.4h1.5
		c1,0,1.5-0.6,1.5-1.8v-1.1c0-1.2-0.5-1.8-1.5-1.8h-1.5c-1,0-1.5,0.6-1.5,1.8v1.1C218.9,22.8,219.4,23.4,220.3,23.4z"/>
	<path class="st0" d="M241.4,26.1c-2.9,0-4.4-1.5-4.4-4.4v-7.3c0-2.9,1.5-4.4,4.4-4.4h3.4c2.9,0,4.4,1.5,4.4,4.4v13.3
		c0,2.9-1.5,4.4-4.4,4.4h-6.2v-0.1l1.2-2.5h5.1c1,0,1.5-0.6,1.5-1.8v-2.1c-0.4,0.3-0.9,0.4-1.5,0.4H241.4z M241.4,23.4h3.4
		c1,0,1.5-0.6,1.5-1.8v-7.3c0-1.2-0.5-1.8-1.5-1.8h-3.4c-1,0-1.5,0.6-1.5,1.8v7.3C240,22.8,240.5,23.4,241.4,23.4z"/>
	<path class="st0" d="M260,26.6V14.3c0-2.9,1.5-4.4,4.4-4.4h3.4c1.3,0,2.3,0.4,2.9,1.1c0.6-0.7,1.6-1.1,2.9-1.1h3.4
		c2.9,0,4.4,1.5,4.4,4.4v11l-2.8,1.3h-0.1V14.3c0-1.2-0.5-1.8-1.5-1.8h-3.4c-1,0-1.5,0.6-1.5,1.8v11l-2.8,1.3h-0.1V14.3
		c0-1.2-0.5-1.8-1.5-1.8h-3.4c-1,0-1.5,0.6-1.5,1.8v11l-2.8,1.3H260z"/>
	<path class="st0" d="M295.5,26.1c-2.9,0-4.4-1.5-4.4-4.4v-2c0-2.9,1.5-4.4,4.4-4.4h3.1c0.5,0,1,0.1,1.5,0.4v-1.4
		c0-1.2-0.5-1.8-1.5-1.8h-5.2v-0.1l1.2-2.5h4.1c2.9,0,4.4,1.5,4.4,4.4v11l-2.8,1.3H300v-1c-0.4,0.3-0.9,0.4-1.5,0.4H295.5z
		 M295.5,23.4h3.1c1,0,1.5-0.6,1.5-1.8v-2c0-1.2-0.5-1.8-1.5-1.8h-3.1c-1,0-1.5,0.6-1.5,1.8v2C294,22.8,294.5,23.4,295.5,23.4z"/>
	<path class="st0" d="M314.3,6.7c-0.3-0.4-0.5-0.8-0.5-1.3s0.2-0.9,0.5-1.3s0.8-0.5,1.2-0.5s0.9,0.2,1.2,0.5s0.5,0.8,0.5,1.3
		s-0.2,0.9-0.5,1.3s-0.8,0.5-1.2,0.5S314.6,7.1,314.3,6.7z M314.1,26.6v-16l2.8-1.3h0.1v16l-2.8,1.3H314.1z"/>
	<path class="st0" d="M328.9,26.6v-22l2.8-1.3h0.1v22l-2.8,1.3H328.9z"/>
	<path class="st0" d="M343.9,25.8c-0.3-0.4-0.5-0.8-0.5-1.3s0.2-0.9,0.5-1.3s0.8-0.5,1.2-0.5s0.9,0.2,1.2,0.5s0.5,0.8,0.5,1.3
		s-0.2,0.9-0.5,1.3s-0.8,0.5-1.2,0.5S344.2,26.2,343.9,25.8z"/>
	<path class="st0" d="M362.1,26.1c-2.9,0-4.4-1.5-4.4-4.4v-7.3c0-2.9,1.5-4.4,4.4-4.4h3.4c2.9,0,4.4,1.5,4.4,4.4v0.8l-2.8,1.3h-0.1
		v-2.1c0-1.2-0.5-1.8-1.5-1.8h-3.4c-1,0-1.5,0.6-1.5,1.8v7.3c0,1.2,0.5,1.8,1.5,1.8h3.4c1,0,1.5-0.6,1.5-1.8v-0.8l2.8-1.3h0.1v2.1
		c0,2.9-1.5,4.4-4.4,4.4H362.1z"/>
	<path class="st0" d="M384.7,26.1c-2.9,0-4.4-1.5-4.4-4.4v-7.3c0-2.9,1.5-4.4,4.4-4.4h3.4c2.9,0,4.4,1.5,4.4,4.4v7.3
		c0,2.9-1.5,4.4-4.4,4.4H384.7z M384.7,23.4h3.4c1,0,1.5-0.6,1.5-1.8v-7.3c0-1.2-0.5-1.8-1.5-1.8h-3.4c-1,0-1.5,0.6-1.5,1.8v7.3
		C383.2,22.8,383.7,23.4,384.7,23.4z"/>
	<path class="st0" d="M402.8,26.6V14.3c0-2.9,1.5-4.4,4.4-4.4h3.4c1.3,0,2.3,0.4,2.9,1.1c0.6-0.7,1.6-1.1,2.9-1.1h3.4
		c2.9,0,4.4,1.5,4.4,4.4v11l-2.8,1.3h-0.1V14.3c0-1.2-0.5-1.8-1.5-1.8h-3.4c-1,0-1.5,0.6-1.5,1.8v11l-2.8,1.3H412V14.3
		c0-1.2-0.5-1.8-1.5-1.8h-3.4c-1,0-1.5,0.6-1.5,1.8v11l-2.8,1.3H402.8z"/>
</g>
</svg>
